<svg xmlns="http://www.w3.org/2000/svg" version="1.1" xmlns:xlink="http://www.w3.org/1999/xlink" xmlns:svgjs="http://svgjs.dev/svgjs" width="1000" height="1222" viewBox="0 0 1000 1222"><g transform="matrix(1,0,0,1,0.28430669153863164,0.49473684210522606)"><svg viewBox="0 0 202 247" data-background-color="#ffffff" preserveAspectRatio="xMidYMid meet" height="1222" width="1000" xmlns="http://www.w3.org/2000/svg" xmlns:xlink="http://www.w3.org/1999/xlink"><g id="tight-bounds" transform="matrix(1,0,0,1,-0.057429951690807,-0.09999999999999432)"><svg viewBox="0 0 202.1148599033816 247.2" height="247.2" width="202.1148599033816"><g><svg viewBox="0 0 202.1148599033816 247.2" height="247.2" width="202.1148599033816"><g><svg viewBox="0 0 202.1148599033816 247.2" height="247.2" width="202.1148599033816"><g id="textblocktransform"><svg viewBox="0 0 202.1148599033816 247.2" height="247.2" width="202.1148599033816" id="textblock"><g><svg viewBox="0 0 202.1148599033816 247.2" height="247.2" width="202.1148599033816"><rect width="202.1148599033816" height="247.2" x="0" y="0" opacity="1" fill="#6936f5" data-fill-palette-color="tertiary"></rect><g transform="matrix(1,0,0,1,23.607599999999998,23.607599999999998)"><svg width="154.89965990338163" viewBox="0.6000000238418579 -31.049999237060547 24.049999237060547 31.049999237060547" height="199.9848" data-palette-color="#ffffff"><path d="M15.65-31.05L24.65-31.05 19.4 0 6.2 0 0.6-31.05 10.05-31.05 12.75-10.7 13.6-10.7 15.65-31.05Z" opacity="1" transform="matrix(1,0,0,1,0,0)" fill="#ffffff" class="wordmark-text-0" data-fill-palette-color="quaternary" id="text-0"></path></svg></g></svg></g></svg></g></svg></g><g></g></svg></g><defs></defs></svg><rect width="202.1148599033816" height="247.2" fill="none" stroke="none" visibility="hidden"></rect></g></svg></g></svg>